<?xml version="1.0" standalone="no"?>
<!DOCTYPE svg PUBLIC "-//W3C//DTD SVG 20010904//EN"
 "http://www.w3.org/TR/2001/REC-SVG-20010904/DTD/svg10.dtd">
<svg version="1.0" xmlns="http://www.w3.org/2000/svg"
 width="1080.000000pt" height="1080.000000pt" viewBox="0 0 1080.000000 1080.000000"
 preserveAspectRatio="xMidYMid meet">

<g transform="translate(0.000000,1080.000000) scale(0.100000,-0.100000)"
fill="#000000" stroke="none">
<path d="M0 5400 l0 -5400 5400 0 5400 0 0 5400 0 5400 -5400 0 -5400 0 0
-5400z m10790 0 l0 -5390 -5390 0 -5390 0 0 5390 0 5390 5390 0 5390 0 0
-5390z"/>
<path d="M4988 9609 c-1309 -116 -2493 -823 -3212 -1919 -390 -594 -608 -1215
-688 -1960 -16 -151 -16 -622 0 -780 39 -377 103 -677 218 -1011 467 -1360
1609 -2410 2999 -2757 394 -99 623 -126 1055 -126 464 0 731 34 1160 151 148
40 472 153 542 189 15 8 30 14 33 14 14 1 162 68 280 127 28 14 82 42 120 61
39 19 77 40 85 47 8 7 40 26 70 42 129 71 328 211 505 357 105 87 373 346 415
402 8 11 48 58 88 105 39 48 72 89 72 93 0 3 11 19 24 34 14 15 41 52 62 82
20 30 42 58 48 62 6 4 7 8 3 8 -4 0 -3 6 3 13 6 6 31 44 55 82 24 39 48 75 53
81 5 6 13 20 16 32 4 12 13 28 19 34 7 7 24 36 38 63 139 263 178 339 233 465
432 977 482 2103 137 3112 -223 653 -578 1212 -1078 1699 -334 325 -681 570
-1098 774 -485 238 -979 375 -1530 425 -126 11 -597 11 -727 -1z m-8 -325
c601 -78 1120 -406 1460 -924 236 -359 375 -842 384 -1330 2 -102 0 -225 -4
-275 -7 -89 -7 -90 19 -109 14 -11 54 -48 89 -83 69 -69 114 -151 133 -242 16
-78 6 -221 -21 -300 -51 -144 -192 -301 -416 -461 -128 -91 -293 -219 -314
-245 -11 -13 27 -15 379 -15 l391 0 0 -215 0 -215 -764 0 c-421 0 -767 3 -769
8 -10 16 33 184 68 263 96 218 223 354 625 666 167 129 262 223 291 288 23 49
25 145 5 184 -21 39 -77 87 -121 101 -47 15 -154 9 -169 -11 -6 -8 -18 -15
-26 -17 -42 -10 -85 -81 -105 -176 -9 -46 -16 -61 -29 -60 -9 1 -112 9 -229
18 -298 24 -280 19 -272 64 3 20 9 48 12 62 l6 24 -27 -27 c-33 -33 -49 -34
-76 -4 -16 17 -13 4 14 -53 20 -41 48 -120 63 -175 24 -90 27 -117 27 -270 -1
-202 -15 -270 -95 -435 -83 -173 -188 -295 -343 -399 -96 -65 -174 -101 -297
-138 -87 -26 -107 -28 -269 -28 -161 0 -182 3 -265 27 -50 15 -116 38 -147 52
-165 73 -353 236 -438 379 l-45 76 -52 1 -53 0 0 -210 0 -210 -770 0 -770 0 0
23 c0 103 96 334 189 458 82 108 276 286 456 419 32 24 53 46 46 48 -7 2 -18
-4 -25 -14 -7 -9 -20 -15 -28 -11 -9 3 -20 1 -25 -4 -5 -5 -33 -10 -63 -11
-30 -2 -57 -6 -60 -10 -3 -4 -30 -8 -60 -10 -30 -1 -58 -6 -61 -11 -3 -4 -39
-8 -80 -9 -47 0 -67 -4 -54 -9 13 -5 -3 -8 -47 -8 -36 -1 -68 -5 -70 -11 -1
-5 -24 -11 -50 -12 -27 -2 -48 -6 -48 -9 0 -3 -33 -11 -72 -17 -40 -5 -172
-26 -293 -45 -121 -19 -227 -35 -236 -34 -35 1 -31 395 7 667 69 508 276 1042
581 1502 603 910 1532 1485 2488 1542 98 6 302 -4 425 -20z m3210 -2549 c173
-26 277 -74 369 -169 98 -103 141 -212 141 -357 0 -256 -136 -435 -550 -724
-47 -33 -116 -87 -155 -120 l-70 -60 395 -5 395 -5 3 -206 2 -207 -767 -4
c-423 -2 -770 -3 -773 -1 -9 8 33 181 61 249 90 216 239 378 600 655 274 211
343 294 344 416 0 52 -4 68 -30 104 -42 60 -102 89 -181 89 -74 0 -109 -11
-147 -48 -36 -34 -75 -108 -83 -160 -11 -69 2 -66 -240 -48 -292 22 -284 21
-284 54 0 48 38 179 72 248 81 166 242 271 463 303 98 14 332 12 435 -4z
m-1867 -362 c-33 -4 -43 -17 -20 -26 6 -3 -2 -6 -20 -6 -17 -1 -39 -4 -49 -8
-14 -5 -14 -3 3 14 24 24 44 31 88 30 30 0 30 0 -2 -4z m1311 -1960 l827 -6
24 -25 c53 -52 37 -140 -30 -168 -29 -12 -255 -14 -1497 -14 -1417 0 -1462 -1
-1482 -19 -12 -10 -70 -55 -129 -100 l-109 -81 -1487 0 c-1630 0 -1514 -4
-1541 59 -17 41 -5 95 26 120 l24 19 -101 4 c-99 3 -101 3 -130 36 -51 57 -34
138 35 168 26 11 424 13 2387 14 1296 0 2728 -3 3183 -7z m-1615 -613 c54 -25
68 -25 81 0 8 15 21 20 50 20 38 0 40 -2 40 -31 0 -39 -56 -99 -93 -99 -14 0
-51 10 -83 22 l-57 22 -15 -22 c-11 -16 -24 -22 -53 -22 -37 0 -39 2 -39 31 0
22 10 41 34 65 40 40 70 43 135 14z m-485 -168 c69 -31 125 -102 139 -180 l7
-33 -83 3 c-80 3 -82 4 -85 29 -7 56 -89 95 -150 70 -54 -23 -67 -61 -67 -201
0 -99 4 -131 17 -156 21 -38 66 -59 114 -51 45 8 72 31 82 71 l8 31 82 3 82 3
-6 -33 c-17 -89 -77 -158 -160 -185 -51 -16 -71 -33 -40 -33 19 0 56 -48 56
-72 0 -32 -29 -77 -59 -93 -16 -8 -48 -16 -72 -17 l-44 -3 -3 41 c-3 35 0 42
17 47 34 8 27 46 -9 53 -25 6 -28 10 -24 33 5 25 2 29 -41 46 -64 24 -118 80
-145 151 -29 75 -32 243 -6 314 35 95 101 158 189 181 48 12 152 2 201 -19z
m613 -3 c57 -27 118 -98 140 -162 25 -73 25 -223 -1 -297 -25 -71 -102 -150
-166 -169 -103 -31 -226 -7 -293 57 -71 67 -107 206 -88 333 14 90 30 127 75
177 80 88 223 114 333 61z m1150 -3 c58 -27 97 -77 108 -138 l7 -38 -80 0
c-75 0 -81 2 -88 23 -13 43 -34 57 -86 57 -35 0 -53 -5 -69 -21 -44 -44 -3
-89 117 -129 129 -43 204 -121 204 -210 0 -20 -10 -56 -22 -80 -18 -35 -35
-51 -78 -73 -52 -27 -61 -28 -155 -25 -110 4 -156 21 -207 75 -30 31 -58 91
-58 123 0 18 6 20 79 20 l79 0 7 -30 c10 -44 48 -70 106 -70 36 0 54 5 69 20
46 46 15 89 -92 129 -141 53 -210 107 -224 179 -26 129 103 230 276 216 30 -3
78 -15 107 -28z m-3527 -41 l0 -65 -145 0 -145 0 0 -65 0 -65 120 0 120 0 0
-60 0 -60 -120 0 -120 0 0 -75 0 -75 145 0 145 0 0 -65 0 -65 -225 0 -225 0 0
203 c0 111 -3 259 -7 330 l-6 127 231 0 232 0 0 -65z m230 -200 l0 -265 135 0
135 0 0 -65 0 -65 -215 0 -215 0 0 330 0 330 80 0 80 0 0 -265z m790 200 l0
-65 -145 0 -145 0 0 -65 0 -65 125 0 125 0 0 -60 0 -60 -125 0 -125 0 0 -75 0
-75 145 0 145 0 0 -65 0 -65 -225 0 -225 0 0 330 0 330 225 0 225 0 0 -65z
m240 -265 l0 -330 -80 0 -80 0 0 330 0 330 80 0 80 0 0 -330z m1815 265 l0
-60 -147 -3 -148 -3 0 -64 0 -65 125 0 125 0 0 -60 0 -60 -125 0 -125 0 0 -75
0 -75 145 0 145 0 0 -65 0 -65 -225 0 -225 0 0 330 0 330 228 -2 227 -3 0 -60z
m-3207 -122 c-15 -2 -42 -2 -60 0 -18 2 -6 4 27 4 33 0 48 -2 33 -4z"/>
<path d="M5020 6260 c13 -9 13 -10 0 -10 -13 0 -13 -1 0 -10 8 -5 24 -10 35
-10 18 0 18 2 -5 20 -14 11 -29 20 -35 20 -5 0 -3 -5 5 -10z"/>
<path d="M4736 6232 c-2 -4 11 -6 30 -4 19 2 34 6 34 8 0 8 -59 4 -64 -4z"/>
<path d="M4615 6210 c-7 -12 12 -12 40 0 18 8 17 9 -7 9 -15 1 -30 -3 -33 -9z"/>
<path d="M4550 6190 c0 -12 8 -12 35 0 18 8 17 9 -7 9 -16 1 -28 -3 -28 -9z"/>
<path d="M4485 6171 c-6 -6 -35 -14 -65 -20 -30 -5 -93 -16 -140 -25 -171 -32
-218 -39 -238 -34 -17 5 -25 -3 -43 -41 -47 -100 -61 -155 -66 -261 -6 -129
11 -210 69 -330 33 -69 57 -101 127 -171 70 -70 102 -94 172 -128 197 -95 400
-95 593 -1 150 73 279 217 331 367 32 92 50 215 41 286 l-7 57 -128 0 c-144 0
-268 -18 -365 -54 -122 -44 -281 -147 -407 -263 l-58 -54 -130 152 c-72 84
-131 155 -131 159 0 9 183 169 257 225 34 25 104 68 155 95 67 36 86 50 68 50
-15 0 -30 -4 -35 -9z"/>
<path d="M5964 3512 c-47 -30 -59 -71 -59 -197 1 -125 14 -164 67 -191 34 -18
89 -14 115 8 36 29 53 90 53 188 0 98 -17 159 -53 188 -28 24 -89 25 -123 4z"/>
</g>
</svg>
